<?xml version="1.0" encoding="UTF-8"?>
<svg width="18px" height="18px" viewBox="0 0 18 18" version="1.1" xmlns="http://www.w3.org/2000/svg" xmlns:xlink="http://www.w3.org/1999/xlink">
    <title>Artboard Copy 2</title>
    <g id="Artboard-Copy-2" stroke="none" stroke-width="1" fill="none" fill-rule="evenodd">
        <rect fill="#FFFFFF" x="0" y="0" width="18" height="18"></rect>
        <g id="sync_blk-copy" transform="translate(0.000000, -0.000000)" fill="#000000" fill-rule="nonzero">
            <path d="M17.9999989,9.23580062 C18.0018151,12.9278069 15.688375,16.2245824 12.2157217,17.4787026 C8.74306837,18.7328229 4.85684306,17.6750055 2.49902303,14.8338503 L2.49902303,17.3880294 L1.3718215,17.3880294 L1.3718215,12.8452071 L5.89432437,12.8452071 L5.89432437,13.9723514 L3.24724438,13.9723514 C5.2635106,16.5225993 8.67356544,17.516536 11.744411,16.4490405 C14.8152565,15.381545 16.8733632,12.4867514 16.8727963,9.23580062 L17.9999989,9.23580062 Z M8.76418948,1.12760562 C11.1275557,1.1286048 13.3563979,2.22723084 14.7965412,4.10103226 L12.1056757,4.10103226 L12.1056757,5.22817653 L16.6281786,5.22817653 L16.6281786,0.684382436 L15.500977,0.684382436 L15.500977,3.16627398 C13.1432075,0.325051286 9.256969,-0.732830247 5.78428857,0.521272826 C2.31160813,1.7753759 -0.00184633192,5.07217753 1.10566109e-06,8.76420346 L1.12720374,8.76420346 C1.13175406,4.54851308 4.54828496,1.13215571 8.76418948,1.12760562 Z" id="Shape"></path>
        </g>
        <g id="my-account_blk" transform="translate(5.000000, 5.000000)" fill="#000000" fill-rule="nonzero">
            <path d="M4,0 C1.790861,0 0,1.790861 0,4 C0,6.209139 1.790861,8 4,8 C6.209139,8 8,6.209139 8,4 C8,2.93913404 7.57857264,1.92171839 6.82842712,1.17157288 C6.07828161,0.421427361 5.06086596,0 4,0 L4,0 Z M4,0.502222222 C5.37119175,0.492848485 6.6210628,1.28654852 7.19568534,2.53156403 C7.77030788,3.77657954 7.56340231,5.24263802 6.66666667,6.28 C6.02045683,5.47618406 5.04469516,5.0086435 4.01333333,5.0086435 C2.9819715,5.0086435 2.00620984,5.47618406 1.36,6.28 C0.46326436,5.24263802 0.256358782,3.77657954 0.830981325,2.53156403 C1.40560387,1.28654852 2.65547491,0.492848485 4.02666667,0.502222222 L4,0.502222222 Z M1.70222222,6.63111111 C2.25173514,5.91890439 3.10044297,5.50177104 4,5.50177104 C4.89955703,5.50177104 5.74826486,5.91890439 6.29777778,6.63111111 C4.98598492,7.79231356 3.01401508,7.79231356 1.70222222,6.63111111 L1.70222222,6.63111111 Z M4,4.50222884 C4.60799339,4.50402103 5.15712068,4.13915902 5.39103715,3.57796183 C5.62495361,3.01676465 5.49752922,2.36990447 5.06824847,1.93934989 C4.63896773,1.50879532 3.99248794,1.37945487 3.43060014,1.6117075 C2.86871233,1.84396014 2.50222222,2.39200395 2.50222222,3 C2.50222222,3.82792186 3.17208177,4.49977275 4,4.50222884 Z M4,2 C4.55228475,2 5,2.44771525 5,3 C5,3.55228475 4.55228475,4 4,4 C3.44771525,4 3,3.55228475 3,3 C3,2.44771525 3.44771525,2 4,2 L4,2 Z" id="Shape"></path>
        </g>
    </g>
</svg>