<?xml version="1.0" encoding="iso-8859-1"?>
<!-- Generator: Adobe Illustrator 19.0.0, SVG Export Plug-In . SVG Version: 6.00 Build 0)  -->
<svg version="1.1" id="Capa_1" xmlns="http://www.w3.org/2000/svg" xmlns:xlink="http://www.w3.org/1999/xlink" x="0px" y="0px"
	 viewBox="0 0 512 512" style="enable-background:new 0 0 512 512;" xml:space="preserve">
<g>
	<g>
		<path d="M432,327H80c-44.112,0-80,35.888-80,80s35.888,80,80,80h352c44.112,0,80-35.888,80-80S476.112,327,432,327z M432,457H80
			c-27.57,0-50-22.43-50-50s22.43-50,50-50h352c27.57,0,50,22.43,50,50S459.57,457,432,457z"/>
	</g>
</g>
<g>
	<g>
		<circle cx="206" cy="407" r="25"/>
	</g>
</g>
<g>
	<g>
		<circle cx="306" cy="407" r="25"/>
	</g>
</g>
<g>
	<g>
		<circle cx="406" cy="407" r="25"/>
	</g>
</g>
<g>
	<g>
		<circle cx="106" cy="407" r="25"/>
	</g>
</g>
<g>
	<g>
		<path d="M351,127h-20v-27c0-41.355-33.645-75-75-75c-41.355,0-75,33.645-75,75v27h-20c-8.284,0-15,6.716-15,15v119
			c0,8.284,6.716,15,15,15h190c8.284,0,15-6.716,15-15V142C366,133.716,359.284,127,351,127z M211,100c0-24.813,20.187-45,45-45
			s45,20.187,45,45v27h-90V100z M336,246H176v-89c1.414,0,158.472,0,160,0V246z"/>
	</g>
</g>
<g>
	<g>
		<path d="M266,177h-20c-8.284,0-15,6.716-15,15c0,6.528,4.178,12.067,10,14.128V212c0,8.284,6.716,15,15,15s15-6.716,15-15v-5.872
			c5.822-2.061,10-7.6,10-14.128C281,183.716,274.284,177,266,177z"/>
	</g>
</g>
<g>
</g>
<g>
</g>
<g>
</g>
<g>
</g>
<g>
</g>
<g>
</g>
<g>
</g>
<g>
</g>
<g>
</g>
<g>
</g>
<g>
</g>
<g>
</g>
<g>
</g>
<g>
</g>
<g>
</g>
</svg>
