<?xml version="1.0" encoding="UTF-8"?>
<svg width="33px" height="29px" viewBox="0 0 33 29" version="1.1" xmlns="http://www.w3.org/2000/svg" xmlns:xlink="http://www.w3.org/1999/xlink">
    <!-- Generator: Sketch 63.1 (92452) - https://sketch.com -->
    <title>Untitled</title>
    <desc>Created with Sketch.</desc>
    <g id="Page-1" stroke="none" stroke-width="1" fill="none" fill-rule="evenodd">
        <rect id="Rectangle" stroke="#979797" fill="#FFFFFF" x="-734.5" y="-586.5" width="1319" height="662"></rect>
        <rect id="Rectangle" stroke="#979797" x="-238.5" y="-449.5" width="769" height="487"></rect>
        <g id="password_FILL0_wght400_GRAD0_opsz48" fill="#CB4019" fill-rule="nonzero">
            <g id="Group">
                <path d="M6.35344828,16 L5.14655172,15.3155556 L6.35344828,13.2 L4,13.2 L4,11.8 L6.35344828,11.8 L5.14655172,9.68444444 L6.35344828,9 L7.5,11.0844444 L8.64655172,9 L9.85344828,9.68444444 L8.64655172,11.8 L11,11.8 L11,13.2 L8.64655172,13.2 L9.85344828,15.3155556 L8.64655172,16 L7.5,13.9155556 L6.35344828,16 Z M15.3534483,16 L14.1465517,15.2599119 L15.3534483,13.1629956 L13,13.1629956 L13,11.7753304 L15.3534483,11.7753304 L14.1465517,9.6784141 L15.3534483,9 L16.5,11.0660793 L17.6465517,9 L18.8534483,9.6784141 L17.6465517,11.7753304 L20,11.7753304 L20,13.1629956 L17.6465517,13.1629956 L18.8534483,15.2599119 L17.6465517,16 L16.5,13.9339207 L15.3534483,16 Z M24.3534483,16 L23.1465517,15.2599119 L24.3534483,13.1629956 L22,13.1629956 L22,11.7753304 L24.3534483,11.7753304 L23.1465517,9.6784141 L24.3534483,9 L25.5,11.0660793 L26.6465517,9 L27.8534483,9.6784141 L26.6465517,11.7753304 L29,11.7753304 L29,13.1629956 L26.6465517,13.1629956 L27.8534483,15.2599119 L26.6465517,16 L25.5,13.9339207 L24.3534483,16 Z" id="Shape"></path>
                <g id="forward_to_inbox_FILL0_wght400_GRAD0_opsz48">
                    <path d="M16.5,11.7324418 L2.475,2.53125 L2.475,24.46875 L18.5625,24.46875 L18.5625,27 L2.475,27 C1.815,27 1.2375,26.746875 0.7425,26.240625 C0.2475,25.734375 0,25.14375 0,24.46875 L0,2.53125 C0,1.85625 0.2475,1.265625 0.7425,0.759375 C1.2375,0.253125 1.815,0 2.475,0 L30.525,0 C31.185,0 31.7625,0.253125 32.2575,0.759375 C32.7525,1.265625 33,1.85625 33,2.53125 L33,15.609375 L30.525,15.609375 L30.525,2.53125 L16.5,11.7324418 Z M16.5,11.728125 L30.525,2.53125 L2.475,2.53125 L16.5,11.728125 Z M2.475,4.8515625 L2.475,25.903125 L2.475,15.609375 L2.475,15.778125 L2.475,2.53125 L2.475,4.8515625 Z" id="Shape"></path>
                </g>
                <path d="M32.7,28.6904177 C32.9,28.4840295 33,28.2432432 33,27.968059 C33,27.6928747 32.9,27.4520885 32.7,27.2457002 C32.5,27.039312 32.2666667,26.9361179 32,26.9361179 C31.7333333,26.9361179 31.5,27.039312 31.3,27.2457002 C31.1,27.4520885 31,27.6928747 31,27.968059 C31,28.2432432 31.1,28.4840295 31.3,28.6904177 C31.5,28.8968059 31.7333333,29 32,29 C32.2666667,29 32.5,28.8968059 32.7,28.6904177 Z M31.1428571,24.7542998 L32.8571429,24.7542998 L32.8571429,17 L31.1428571,17 L31.1428571,24.7542998 Z" id="Shape"></path>
            </g>
        </g>
        <polygon id="Triangle" fill="#000000" transform="translate(16.500000, -4.000000) scale(-1, -1) translate(-16.500000, 4.000000) " points="16.5 -9 25 1 8 1"></polygon>
    </g>
</svg>