<?xml version="1.0" encoding="UTF-8"?>
<svg width="33px" height="30px" viewBox="0 0 33 30" version="1.1" xmlns="http://www.w3.org/2000/svg" xmlns:xlink="http://www.w3.org/1999/xlink">
    <!-- Generator: Sketch 63.1 (92452) - https://sketch.com -->
    <title>Group 7</title>
    <desc>Created with Sketch.</desc>
    <g id="Page-1" stroke="none" stroke-width="1" fill="none" fill-rule="evenodd">
        <g id="password_FILL0_wght400_GRAD0_opsz48" fill="#000000" fill-rule="nonzero">
            <g id="Group-7">
                <path d="M6.12727273,15 L5.03636364,14.4185022 L6.12727273,12.6211454 L4,12.6211454 L4,11.4317181 L6.12727273,11.4317181 L5.03636364,9.63436123 L6.12727273,9.05286344 L7.16363636,10.8237885 L8.2,9.05286344 L9.29090909,9.63436123 L8.2,11.4317181 L10.3272727,11.4317181 L10.3272727,12.6211454 L8.2,12.6211454 L9.29090909,14.4185022 L8.2,15 L7.16363636,13.2290749 L6.12727273,15 Z M14.9636364,15 L13.8727273,14.3656388 L14.9636364,12.5682819 L12.8363636,12.5682819 L12.8363636,11.3788546 L14.9636364,11.3788546 L13.8727273,9.5814978 L14.9636364,9 L16,10.7709251 L17.0363636,9 L18.1272727,9.5814978 L17.0363636,11.3788546 L19.1636364,11.3788546 L19.1636364,12.5682819 L17.0363636,12.5682819 L18.1272727,14.3656388 L17.0363636,15 L16,13.2290749 L14.9636364,15 Z M23.8,15 L22.7090909,14.3656388 L23.8,12.5682819 L21.6727273,12.5682819 L21.6727273,11.3788546 L23.8,11.3788546 L22.7090909,9.5814978 L23.8,9 L24.8363636,10.7709251 L25.8727273,9 L26.9636364,9.5814978 L25.8727273,11.3788546 L28,11.3788546 L28,12.5682819 L25.8727273,12.5682819 L26.9636364,14.3656388 L25.8727273,15 L24.8363636,13.2290749 L23.8,15 Z" id="Shape"></path>
                <g id="forward_to_inbox_FILL0_wght400_GRAD0_opsz48-2">
                    <g id="forward_to_inbox_FILL0_wght400_GRAD0_opsz48">
                        <path d="M15.7142857,11.0358065 L2.35714286,2.38095238 L2.35714286,23.015873 L17.6785714,23.015873 L17.6785714,25.3968254 L2.35714286,25.3968254 C1.72857143,25.3968254 1.17857143,25.1587302 0.707142857,24.6825397 C0.235714286,24.2063492 0,23.6507937 0,23.015873 L0,2.38095238 C0,1.74603175 0.235714286,1.19047619 0.707142857,0.714285714 C1.17857143,0.238095238 1.72857143,0 2.35714286,0 L29.0714286,0 C29.7,0 30.25,0.238095238 30.7214286,0.714285714 C31.1928571,1.19047619 31.4285714,1.74603175 31.4285714,2.38095238 L31.4285714,14.6825397 L29.0714286,14.6825397 L29.0714286,2.38095238 L15.7142857,11.0358065 Z M15.7142857,11.031746 L29.0714286,2.38095238 L2.35714286,2.38095238 L15.7142857,11.031746 Z M27.2642857,30 L25.6142857,28.3333333 L28.4821429,25.3968254 L20.0357143,25.3968254 L20.0357143,23.015873 L28.4821429,23.015873 L25.575,20.0793651 L27.2642857,18.4126984 L33,24.2063492 L27.2642857,30 Z M2.35714286,4.56349206 L2.35714286,24.3650794 L2.35714286,14.6825397 L2.35714286,14.8412698 L2.35714286,2.38095238 L2.35714286,4.56349206 Z" id="Shape"></path>
                    </g>
                </g>
            </g>
        </g>
    </g>
</svg>