<?xml version="1.0" encoding="utf-8"?>
<!-- Generator: Adobe Illustrator 26.0.3, SVG Export Plug-In . SVG Version: 6.00 Build 0)  -->
<svg version="1.1" id="Calendar" xmlns="http://www.w3.org/2000/svg" xmlns:xlink="http://www.w3.org/1999/xlink" x="0px" y="0px"
	 viewBox="0 0 21.6 21.6" style="enable-background:new 0 0 21.6 21.6;" xml:space="preserve">
<path d="M1.8,1.8v18h18v-18C19.8,1.8,1.8,1.8,1.8,1.8z M18.7,18.7H2.9V5.2h15.7v13.5H18.7z M18.7,4H2.9V2.9h15.7V4H18.7z M10.7,13.8
	c0-1.1-0.8-1.7-2.2-1.7H8v-0.8h0.5c1.3,0,2-0.6,2-1.5c0-0.9-0.8-1.5-1.8-1.5c-1.2,0-2,0.8-2,2h-1c0-1.7,1.1-2.8,3-2.8
	c1.6,0,2.8,0.9,2.8,2.3c0,1-0.6,1.5-1.4,1.8v0c1.2,0.3,1.7,1.1,1.7,2.2c0,1.6-1.3,2.6-3.1,2.6c-1.9,0-3.4-1.1-3.4-3h1
	c0,1.4,0.9,2.1,2.3,2.1C9.9,15.6,10.7,15,10.7,13.8z M14.8,10h-1.9V9.3c1,0,1.9-0.4,2.1-1.7h0.8v8.6h-1V10z"/>
</svg>
