<?xml version="1.0" encoding="UTF-8"?>
<svg width="30px" height="28px" viewBox="0 0 30 28" version="1.1" xmlns="http://www.w3.org/2000/svg" xmlns:xlink="http://www.w3.org/1999/xlink">
    <title>ATOMS/BUTTONS/SMALL/PRIMARY/ICON</title>
    <g id="VCP-desktop-dashboard" stroke="none" stroke-width="1" fill="none" fill-rule="evenodd">
        <g id="Device-test1a" transform="translate(-1393.000000, -560.000000)">
            <g id="Group-3" transform="translate(48.000000, 464.000000)">
                <g id="Group-9" transform="translate(698.000000, 0.000000)">
                    <g id="Group-4" transform="translate(8.745767, 6.000000)">
                        <g id="Group-5" transform="translate(0.000000, 45.000000)">
                            <g id="Group-6" transform="translate(0.000000, 45.000000)">
                                <g id="ATOMS/BUTTONS/SMALL/PRIMARY/ICON" transform="translate(638.528427, 0.000000)">
                                    <rect id="Background-[4-11-3-11]" stroke="#000000" fill="#FFFFFF" x="0.5" y="0.5" width="27.1642229" height="27" rx="13.5"></rect>
                                    <g id="Group" transform="translate(7.000000, 7.000000)" fill="#000000" fill-rule="nonzero">
                                        <g id="Group" transform="translate(-0.000000, 0.368421)">
                                            <polygon id="Path" points="5.82105266 3.53684212 5.82105266 8.98947372 9.5052632 6.26315792 9.06315793 5.60000002 6.63157897 7.29473687 6.63157897 3.53684212"></polygon>
                                            <path d="M10.0210527,10.0210527 L10.0210527,10.0210527 L11.4947369,10.0210527 C9.65263162,12.6000001 6.04210529,13.1894737 3.3894737,11.2736843 C2.87368422,10.9052632 2.35789475,10.3894737 1.98947369,9.87368425 C0.221052632,7.22105266 0.88421053,3.61052633 3.53684212,1.84210527 C6.18947371,0.0736842108 9.80000004,0.736842108 11.5684211,3.3894737 C12.1578948,4.27368423 12.5263158,5.37894739 12.5263158,6.48421055 L13.3368422,6.48421055 C13.2631579,2.80000001 10.1684211,-0.0736842108 6.55789476,0.0736842108 C2.94736843,0.221052632 0,3.16842107 0.147368422,6.7789474 C0.294736843,10.3894737 3.31578949,13.3368422 6.92631582,13.1894737 C8.98947372,13.1157895 10.9789474,12.0842106 12.1578948,10.3894737 L12.1578948,12.0842106 L12.9684211,12.0842106 L12.9684211,9.13684214 L10.0210527,9.13684214 L10.0210527,10.0210527 Z" id="Path"></path>
                                        </g>
                                    </g>
                                </g>
                            </g>
                        </g>
                    </g>
                </g>
            </g>
        </g>
    </g>
</svg>