<?xml version="1.0" encoding="UTF-8"?>
<svg width="14px" height="18px" viewBox="0 0 14 18" version="1.1" xmlns="http://www.w3.org/2000/svg" xmlns:xlink="http://www.w3.org/1999/xlink">
    <!-- Generator: Sketch 63.1 (92452) - https://sketch.com -->
    <title>Lock Open</title>
    <desc>Created with Sketch.</desc>
    <g id="AT-SLR" stroke="none" stroke-width="1" fill="none" fill-rule="evenodd">
        <g id="SLR-mobile-1" transform="translate(-158.000000, -364.000000)" fill="#000000" fill-rule="nonzero">
            <g id="Lock-Open" transform="translate(158.000000, 364.000000)">
                <path d="M3.38581255,7.90551442 L3.38581255,4.56912998 C3.38581255,2.72649557 4.87956258,1.23274555 6.72219699,1.23274555 C8.56483141,1.23274555 10.0585814,2.72649557 10.0585814,4.56912998 L11.1707096,4.56912998 C11.1707096,2.1122842 9.17904228,0.120617399 6.72219699,0.120617399 C4.2653517,0.120617399 2.27368441,2.1122842 2.27368441,4.56912998 L2.27368441,7.90551442 L0.0494281153,7.90551442 L0.0494281153,17.9146687 L13.3949649,17.9146687 L13.3949649,7.90551442 L3.38581255,7.90551442 Z M12.2828367,16.8025405 L1.16155626,16.8025405 L1.16155626,9.01764346 L12.2828367,9.01764346 L12.2828367,16.8025405 L12.2828367,16.8025405 Z M5.61006786,11.7974698 C5.61006786,11.1832581 6.10798424,10.6853417 6.72219601,10.6853417 C7.33640777,10.6853417 7.83432415,11.1832581 7.83432415,11.7974698 C7.83010528,12.1880272 7.61849092,12.5468691 7.27875406,12.7395661 L7.27875406,15.1338543 L6.1666269,15.1338543 L6.1666269,12.7395661 C5.82634426,12.5472933 5.6142632,12.1883025 5.61006786,11.7974698 Z" id="Shape"></path>
            </g>
        </g>
    </g>
</svg>