<?xml version="1.0" encoding="UTF-8"?>
<svg width="36px" height="36px" viewBox="0 0 36 36" version="1.1" xmlns="http://www.w3.org/2000/svg" xmlns:xlink="http://www.w3.org/1999/xlink">
    <!-- Generator: Sketch 63.1 (92452) - https://sketch.com -->
    <title>lock-closed_auxiliary</title>
    <desc>Created with Sketch.</desc>
    <g id="AT-SLR" stroke="none" stroke-width="1" fill="none" fill-rule="evenodd">
        <g id="SLR-mobile-1" transform="translate(-107.000000, -402.000000)" fill-rule="nonzero">
            <g id="lock-closed_auxiliary" transform="translate(107.000000, 402.000000)">
                <g id="Layer_2" fill="#ED7000">
                    <path d="M18,36 C27.9,36 36,27.9 36,18 C36,8.1 27.9,0 18,0 C8.1,0 0,8.1 0,18 C0,18 0,18 0,18 C0,27.9 8.1,36 18,36 Z" id="Path"></path>
                </g>
                <g id="Layer_4" transform="translate(11.000000, 9.000000)" fill="#FFFFFF">
                    <g id="Group">
                        <path d="M6.4,12.8 L6.4,15.2 L7.5,15.2 L7.5,12.8 C7.8,12.6 8.1,12.3 8.1,11.8 C8.1,11.2 7.6,10.7 7,10.7 C6.4,10.7 5.9,11.2 5.9,11.8 C5.9,12.2 6.1,12.6 6.4,12.8 Z" id="Path"></path>
                        <path d="M11.5,7.9 L11.5,4.5 C11.5,2 9.5,-1.77635684e-15 7,-1.77635684e-15 C4.5,-1.77635684e-15 2.5,2 2.5,4.5 L2.5,7.9 L0.3,7.9 L0.3,18 L13.8,18 L13.8,7.9 L11.5,7.9 Z M3.6,4.5 C3.6,2.6 5.1,1.1 7,1.1 C8.9,1.1 10.4,2.6 10.4,4.5 L10.4,7.9 L3.6,7.9 L3.6,4.5 L3.6,4.5 Z M12.6,16.9 L1.4,16.9 L1.4,9 L12.6,9 L12.6,16.9 Z" id="Shape"></path>
                    </g>
                </g>
            </g>
        </g>
    </g>
</svg>