<?xml version="1.0" encoding="UTF-8"?>
<svg width="18px" height="18px" viewBox="0 0 18 18" version="1.1" xmlns="http://www.w3.org/2000/svg" xmlns:xlink="http://www.w3.org/1999/xlink">
    <!-- Generator: Sketch 63.1 (92452) - https://sketch.com -->
    <title>Icon / Notifications &amp; Feedback / Feedback / Medium</title>
    <desc>Created with Sketch.</desc>
    <g id="Sticker-Sheet" stroke="none" stroke-width="1" fill="none" fill-rule="evenodd">
        <g id="Notifications-&amp;-Feedback-Icons" transform="translate(-355.000000, -35.000000)" fill="#000000">
            <g id="Icon-/-Notifications-&amp;-Feedback-/-Feedback-/-Medium" transform="translate(354.000000, 34.000000)">
                <g id="⚙️-/-Icon-/-Notifications-&amp;-Feedback-/-Feedback-/-Master">
                    <path d="M15.209492,9.42332221 L16.2291435,8.32951428 L16.2291435,14.595736 L5.55988135,14.595736 L1.66666667,18.229403 L1.66666667,1.76666667 L16.1457175,1.76666667 L15.1167964,2.76777901 L2.68631813,2.76777901 L2.68631813,15.8842047 L4.85539488,13.8912495 C5.04296661,13.7129376 5.29181025,13.6134002 5.55061179,13.6131628 L15.209492,13.6131628 L15.209492,9.42332221 Z M11.742677,7.7177234 L16.3774564,2.94390063 L18.3333333,4.79781238 L13.0960326,10.2761216 L10.6210604,10.8322951 L11.028921,8.6168706 L4.79977753,8.6168706 L4.79977753,7.68991472 L11.742677,7.7177234 Z M15.3670745,5.23348165 L16.0901001,5.92869855 L17.1375603,4.83489062 L16.4145347,4.14894327 L15.3670745,5.23348165 Z M11.8817204,8.80226177 L11.7148684,9.72921765 L12.6418242,9.5160178 L15.4226919,6.55902855 L14.6903967,5.85454208 L11.8817204,8.80226177 Z M12.8642937,5.00174268 L4.79977753,5.00174268 L4.79977753,5.92869855 L12.8642937,5.92869855 L12.8642937,5.00174268 Z M4.79977753,11.3421209 L9.26770486,11.3421209 L9.26770486,10.415165 L4.79977753,10.415165 L4.79977753,11.3421209 Z" id="Color"></path>
                </g>
            </g>
        </g>
    </g>
</svg>